<svg version="1.1" id="feat-mock-integrations" xmlns="http://www.w3.org/2000/svg" xmlns:xlink="http://www.w3.org/1999/xlink"
	 x="0px" y="0px" viewBox="0 0 600 600" style="enable-background:new 0 0 600 600;" xml:space="preserve">
<style type="text/css">
	.st0{fill:#1D1D1D;}
	.st1{fill:#FFFFFF;}
	.st2{opacity:0.1;}
	.st3{fill:#FF4A00;}
	.st4{fill:#C73A63;}
	.st5{fill:#52BD94;}
	.st6{fill-rule:evenodd;clip-rule:evenodd;fill:#52BD94;}
	.st7{fill:none;}
	.st8{fill:#286EFA;}
	.st9{clip-path:url(#SVGID_2_);fill:#FBBC05;}
	.st10{clip-path:url(#SVGID_4_);fill:#EA4335;}
	.st11{clip-path:url(#SVGID_6_);fill:#34A853;}
	.st12{clip-path:url(#SVGID_8_);fill:#4285F4;}
	.st13{fill:#32373C;}
	.st14{fill:#E01E5A;}
	.st15{fill:#36C5F0;}
	.st16{fill:#2EB67D;}
	.st17{fill:#ECB22E;}
	.st18{fill:#F8AB00;}
	.st19{fill:#E37300;}
	@keyframes rotate {
		from {transform: translate3D(0,0,0) rotate(0deg);}
		to {transform: translate3D(0,0,0) rotate(360deg);}
	}
	g#C-icons {animation: rotate 15s linear forwards infinite; transform-origin: 50% 50%;}
	g#B-icons {animation: rotate 20s linear reverse infinite; transform-origin: 50% 50%;}
	g#A-icons {animation: rotate 25s linear forwards infinite; transform-origin: 50% 50%;}
	g#content, g#A-icons, g#B-icons, g#C-icons {filter:drop-shadow(0 0 5px rgba(0,0,0,0.2));}
</style>
<g id="content">
	<circle class="st0" cx="300" cy="300" r="49.3"/>
	<g>
		<g>
			<path class="st1" d="M275.5,322c-1.7,0-3.3-0.9-3.9-2.6c-0.8-2.1,0.1-4.6,2.3-5.4l49-20c2.1-0.8,4.6,0.1,5.5,2.2
				c0.8,2.1-0.2,4.6-2.3,5.4l-49,20C276.6,321.9,276,322,275.5,322z"/>
		</g>
		<g>
			<path class="st1" d="M275.5,306.2c-1.7,0-3.3-0.9-3.9-2.6c-0.8-2.1,0.1-4.6,2.3-5.4l49-20c2.1-0.8,4.6,0.1,5.5,2.2
				c0.8,2.1-0.2,4.6-2.3,5.4l-49,20C276.6,306.1,276,306.2,275.5,306.2z"/>
		</g>
		<g>
			<path class="st1" d="M275.5,289.8c-1.7,0-3.3-1-3.9-2.6c-0.8-2.1,0.2-4.6,2.3-5.4l30-12.2c2.1-0.8,4.6,0.2,5.5,2.3
				c0.8,2.1-0.2,4.6-2.3,5.4l-30,12.2C276.6,289.7,276,289.8,275.5,289.8z"/>
		</g>
		<g>
			<path class="st1" d="M294.3,330.7c-1.7,0-3.3-1-3.9-2.6c-0.8-2.1,0.2-4.6,2.3-5.4l30-12.2c2.1-0.8,4.6,0.2,5.5,2.3
				c0.8,2.1-0.2,4.6-2.3,5.4l-30,12.2C295.4,330.6,294.9,330.7,294.3,330.7z"/>
		</g>
	</g>
</g>
<g id="one">
	<g id="A-icons">
		<g class="st2">
			<path class="st0" d="M300,403.2c-56.9,0-103.2-46.3-103.2-103.2S243.1,196.8,300,196.8S403.2,243.1,403.2,300
				S356.9,403.2,300,403.2z M300,198.6c-55.9,0-101.4,45.5-101.4,101.4S244.1,401.4,300,401.4S401.4,355.9,401.4,300
				S355.9,198.6,300,198.6z"/>
		</g>
		<g>
			<g id="icon-za">
				<circle class="st1" cx="402.3" cy="300" r="27.9"/>
				<path id="zapier" class="st3" d="M402.3,304.3c-1.3,0-2.5-0.3-3.6-0.7c-0.5-1.1-0.7-2.3-0.7-3.6l0,0c0-1.3,0.3-2.5,0.7-3.6
					c1.1-0.5,2.3-0.7,3.6-0.7l0,0c1.3,0,2.5,0.3,3.6,0.7c0.5,1.1,0.7,2.3,0.7,3.6l0,0c0,1.3-0.3,2.5-0.7,3.6
					C404.8,304.1,403.6,304.3,402.3,304.3L402.3,304.3L402.3,304.3z M405.2,316.9v-10l7.1,7.1c0.7-0.6,1.5-1.2,2.2-1.9l0,0
					c0.7-0.7,1.3-1.4,1.9-2.2l-7.1-7.1h10c0.2-0.9,0.3-1.9,0.3-2.9l0,0c0-0.9-0.1-2-0.3-2.9h-10l7.1-7.1c-0.6-0.7-1.2-1.5-1.9-2.2
					l0,0c-0.7-0.7-1.4-1.3-2.2-1.9l-7.1,7.1v-10c0,0-1.9-0.3-2.9-0.3l0,0c-0.9,0-2,0.1-2.9,0.3v10l-7.1-7.1c-1.6,1.1-3,2.5-4.1,4.1
					l7.1,7.1h-10c-0.2,0.9-0.3,1.9-0.3,2.9l0,0c0,0.9,0.1,2,0.3,2.9h10l-7.1,7.1c0.6,0.7,1.2,1.5,1.9,2.2l0,0
					c0.7,0.7,1.4,1.3,2.2,1.9l7.1-7.1v10c0.9,0.2,1.9,0.3,2.9,0.3l0,0C403.2,317.2,404.3,317.1,405.2,316.9L405.2,316.9z"/>
			</g>
			<g id="icon-wh">
				<circle class="st1" cx="227.6" cy="372.4" r="27.9"/>
				<g id="webhook">
					<path class="st4" d="M226.6,375c2.7-0.7,5.3-1.4,7.9-2c0.7-0.2,1.1-0.4,1.5-1.1c0.9-2,3.2-2.7,5-1.6c1.8,1,2.2,3.3,1,5.1
						c-1.1,1.6-3.4,1.9-5.1,0.6c-0.2-0.1-0.3-0.2-0.5-0.4c-2,0.5-3.9,1-6,1.5c0,2.8-0.7,5.2-3,7.1c-1.6,1.3-3.3,2-5.4,2
						c-3.9,0-7.2-2.7-8-6.5c-0.8-3.6,0.9-7.4,4.2-8.9c0.5,0.8,0.9,1.7,1.5,2.6c-1.6,1-2.6,2.4-2.7,4.4c-0.1,1.3,0.3,2.3,1,3.3
						c1.5,2,4.3,2.6,6.4,1.4C227.1,380.9,227.7,378.5,226.6,375L226.6,375z"/>
					<path class="st0" d="M221.7,374c0.6-2,1.1-4,1.7-6c-4.7-2.5-5.5-7.3-4.3-10.3c1.4-3.8,5.3-6,9.2-5.3c4,0.7,6.8,4,6.8,8.3
						c-1-0.1-2-0.2-3.1-0.3c-0.7-3.4-2.6-5.2-5.6-4.9c-2.5,0.2-4.6,2.2-4.7,4.8c-0.2,2.9,1.6,4.8,5.3,5.5c-0.7,2.5-1.4,5.1-2.1,7.6
						c-0.3,0.8-0.3,1.5,0.3,2.3c0.9,1.3,0.7,3.1-0.4,4.2c-1,1.1-2.6,1.5-4,0.8c-1.4-0.7-2.2-2-2-3.5c0.2-1.2,0.7-2.1,1.9-2.7
						C220.9,374.3,221.3,374.2,221.7,374L221.7,374z"/>
					<path class="st0" d="M230.2,362.1l4.4,4.4c2.1-1.3,4.5-1.8,6.9-1.1c1.9,0.6,3.4,1.6,4.6,3.2c2.1,3,2,7.3-0.5,10.1
						c-2.7,3.2-7.3,3.7-10.6,1.7c0.5-0.8,1-1.8,1.5-2.6c3.7,1.2,6.1,0.5,7.4-2.2c1.1-2.3,0.4-5-1.9-6.5c-2.3-1.5-4.8-0.9-7.3,1.8
						c-1.8-1.8-3.6-3.6-5.4-5.5c-0.7-0.7-1.3-1.2-2.5-1.1c-1.9,0.2-3.4-1.6-3.4-3.4c0-2,1.7-3.5,3.6-3.4c1.9,0.1,3.4,1.7,3.3,3.6
						C230.4,361.3,230.3,361.7,230.2,362.1L230.2,362.1z"/>
				</g>
			</g>
			<g id="icon-se_1_">
				<circle class="st1" cx="300" cy="197.7" r="27.9"/>
				<g id="segment_1_">
					<path class="st5" d="M297.1,192.2h16.7c0.3,0,0.6,0.3,0.6,0.6v2c0,0.3-0.3,0.6-0.6,0.6h-16.7c-0.3,0-0.6-0.3-0.6-0.6v-2
						C296.6,192.5,296.8,192.2,297.1,192.2z"/>
					<path class="st5" d="M286,200h16.7c0.3,0,0.6,0.3,0.6,0.6v2c0,0.3-0.3,0.6-0.6,0.6H286c-0.3,0-0.6-0.3-0.6-0.6v-2
						C285.5,200.3,285.8,200,286,200z"/>
					<path class="st6" d="M287.6,194.4c0.3,0.1,0.7-0.1,0.7-0.4c2-6,8.1-9.6,14.3-8.3c0.3,0.1,0.6-0.1,0.7-0.4l0.5-1.9
						c0.1-0.3-0.1-0.7-0.4-0.7l0,0c-7.8-1.8-15.7,2.8-18,10.4c-0.1,0.3,0.1,0.7,0.4,0.7l0,0L287.6,194.4z"/>
					<path class="st6" d="M312.4,201c-0.3-0.1-0.7,0.1-0.7,0.4c-2,6-8.1,9.6-14.3,8.3c-0.3-0.1-0.6,0.1-0.7,0.4l-0.5,1.9
						c-0.1,0.3,0.1,0.7,0.4,0.7l0,0c7.8,1.8,15.7-2.8,18-10.4c0.1-0.3-0.1-0.7-0.4-0.7l0,0L312.4,201z"/>
					<circle class="st5" cx="308.8" cy="187.1" r="1.7"/>
					<circle class="st5" cx="291.2" cy="208.3" r="1.7"/>
				</g>
			</g>
		</g>
	</g>
	<rect id="A" class="st7" width="600" height="600"/>
</g>
<g id="two">
	<g id="B-icons">
		<g class="st2">
			<path class="st0" d="M300,463.7c-90.2,0-163.7-73.5-163.7-163.7S209.8,136.3,300,136.3S463.7,209.8,463.7,300
				S390.2,463.7,300,463.7z M300,138.2c-89.2,0-161.8,72.6-161.8,161.8S210.8,461.8,300,461.8S461.8,389.2,461.8,300
				S389.2,138.2,300,138.2z"/>
		</g>
		<g>
			<g id="icon-in">
				<circle class="st1" cx="415" cy="415" r="27.9"/>
				<path id="intercom" class="st8" d="M418.1,436.3l18.2-18.2c1.7-1.7,1.7-4.4,0-6l-18.2-18.2c-1.7-1.7-4.4-1.7-6,0l-18.2,18.2
					c-1.7,1.7-1.7,4.4,0,6l18.2,18.2C413.7,438,416.4,438,418.1,436.3z M419.5,426c0.5,0.5,0.5,1.2,0,1.6c-0.5,0.5-1.2,0.5-1.6,0
					l-10.8-10.8c-0.5-0.5-0.5-1.2,0-1.6c0.5-0.5,1.2-0.5,1.6,0L419.5,426z M424,422.4c0.5,0.5,0.5,1.2,0,1.6c-0.5,0.4-1.2,0.5-1.6,0
					l-11.7-11.7c-0.5-0.5-0.5-1.2,0-1.6c0.5-0.5,1.2-0.5,1.6,0L424,422.4z M427.6,417.9c0.5,0.5,0.5,1.2,0,1.6
					c-0.5,0.4-1.2,0.5-1.6,0l-10.8-10.8c-0.5-0.5-0.5-1.2,0-1.6c0.5-0.4,1.2-0.5,1.6,0L427.6,417.9z M430,412.3
					c0.5,0.5,0.5,1.2,0,1.6c-0.5,0.5-1.2,0.5-1.6,0l-7.3-7.3c-0.5-0.5-0.5-1.2,0-1.6c0.5-0.4,1.2-0.5,1.6,0L430,412.3z M400.2,417.5
					c0-0.2,0.5-5.8,6-11.3c5.5-5.5,11-6,11.3-6c0.7-0.1,1.2,0.5,1.2,1c0.1,0.7-0.5,1.2-1,1.2c-0.1,0-4.9,0.5-9.8,5.3
					c-4.9,4.9-5.3,9.8-5.3,9.8c-0.1,0.7-0.6,1.1-1.2,1C400.6,418.6,400.2,418,400.2,417.5L400.2,417.5z M405,422.8
					c-0.5-0.5-0.5-1.2,0-1.6c0.5-0.5,1.2-0.5,1.6,0l7.3,7.3c0.5,0.5,0.5,1.2,0,1.6c-0.5,0.5-1.2,0.5-1.6,0L405,422.8z"/>
			</g>
			<g id="icon-go">
				<circle class="st1" cx="186.3" cy="186.3" r="27.9"/>
				<g id="google">
					<g>
						<g>
							<defs>
								<path id="SVGID_1_" d="M195.4,173l-11,11l4.6,4.6l6.3-6.3c2.3,3.4,1.5,7.6-1.8,10.9c-3.8,3.8-10,3.8-13.9,0s-3.8-10,0-13.9
									c1.7-1.7,3.7-2.6,5.9-2.8v-6.9c-3.9,0.3-7.7,1.9-10.7,4.8c-6.5,6.5-6.5,17,0,23.5c6.5,6.5,17,6.5,23.5,0
									c5.9-5.9,7-15.5-0.6-23C197,174.1,196.2,173.4,195.4,173z"/>
							</defs>
							<clipPath id="SVGID_2_">
								<use xlink:href="#SVGID_1_"  style="overflow:visible;"/>
							</clipPath>
							<path class="st9" d="M180.7,205.8l-13.9-13.9l16-2.1L180.7,205.8z"/>
						</g>
					</g>
					<g>
						<g>
							<defs>
								<path id="SVGID_3_" d="M195.4,173l-11,11l4.6,4.6l6.3-6.3c2.3,3.4,1.5,7.6-1.8,10.9c-3.8,3.8-10,3.8-13.9,0s-3.8-10,0-13.9
									c1.7-1.7,3.7-2.6,5.9-2.8v-6.9c-3.9,0.3-7.7,1.9-10.7,4.8c-6.5,6.5-6.5,17,0,23.5c6.5,6.5,17,6.5,23.5,0
									c5.9-5.9,7-15.5-0.6-23C197,174.1,196.2,173.4,195.4,173z"/>
							</defs>
							<clipPath id="SVGID_4_">
								<use xlink:href="#SVGID_3_"  style="overflow:visible;"/>
							</clipPath>
							<path class="st10" d="M166.8,191.9l16-2.1l0.5-7l10.7-14.9l-7.4-7.4l-25.7,25.7L166.8,191.9z"/>
						</g>
					</g>
					<g>
						<g>
							<defs>
								<path id="SVGID_5_" d="M195.4,173l-11,11l4.6,4.6l6.3-6.3c2.3,3.4,1.5,7.6-1.8,10.9c-3.8,3.8-10,3.8-13.9,0s-3.8-10,0-13.9
									c1.7-1.7,3.7-2.6,5.9-2.8v-6.9c-3.9,0.3-7.7,1.9-10.7,4.8c-6.5,6.5-6.5,17,0,23.5c6.5,6.5,17,6.5,23.5,0
									c5.9-5.9,7-15.5-0.6-23C197,174.1,196.2,173.4,195.4,173z"/>
							</defs>
							<clipPath id="SVGID_6_">
								<use xlink:href="#SVGID_5_"  style="overflow:visible;"/>
							</clipPath>
							<path class="st11" d="M180.7,205.8l3.7-28.3l4.7-3.7l-2.6-13.4l25.7,25.7l-25.7,25.6L180.7,205.8z"/>
						</g>
					</g>
					<g>
						<g>
							<defs>
								<path id="SVGID_7_" d="M195.4,173l-11,11l4.6,4.6l6.3-6.3c2.3,3.4,1.5,7.6-1.8,10.9c-3.8,3.8-10,3.8-13.9,0s-3.8-10,0-13.9
									c1.7-1.7,3.7-2.6,5.9-2.8v-6.9c-3.9,0.3-7.7,1.9-10.7,4.8c-6.5,6.5-6.5,17,0,23.5c6.5,6.5,17,6.5,23.5,0
									c5.9-5.9,7-15.5-0.6-23C197,174.1,196.2,173.4,195.4,173z"/>
							</defs>
							<clipPath id="SVGID_8_">
								<use xlink:href="#SVGID_7_"  style="overflow:visible;"/>
							</clipPath>
							<path class="st12" d="M212.2,186l-29.4,3.7l-3.7,0.6l13.4-24L212.2,186z"/>
						</g>
					</g>
				</g>
			</g>
		</g>
	</g>
	<rect id="B" class="st7" width="600" height="600"/>
</g>
<g id="three">
	<g id="C-icons">
		<g class="st2">
			<path class="st0" d="M300,519.5c-58.6,0-113.7-22.8-155.2-64.3S80.5,358.6,80.5,300s22.8-113.7,64.3-155.2S241.4,80.5,300,80.5
				s113.7,22.8,155.2,64.3s64.3,96.6,64.3,155.2s-22.8,113.7-64.3,155.2S358.6,519.5,300,519.5z M300,82.4
				c-58.1,0-112.8,22.6-153.9,63.7S82.4,241.9,82.4,300s22.6,112.8,63.7,153.9s95.8,63.7,153.9,63.7s112.8-22.6,153.9-63.7
				s63.7-95.8,63.7-153.9S495,187.2,453.9,146.1S358.1,82.4,300,82.4z"/>
		</g>
		<g id="icon-wp">
			<circle class="st1" cx="300" cy="519.3" r="27.9"/>
			<g id="wp">
				<path class="st13" d="M300,534.9c-2.1,0-4.2-0.4-6-1.2c-0.9-0.4-1.9-0.8-2.7-1.4c-0.8-0.6-1.6-1.2-2.3-2c-0.7-0.7-1.4-1.5-2-2.3
					c-0.6-0.8-1-1.8-1.4-2.7c-0.8-2-1.2-4-1.2-6c0-2.1,0.4-4.2,1.2-6c0.4-0.9,0.8-1.9,1.4-2.7c0.6-0.8,1.2-1.6,2-2.3
					c0.7-0.7,1.5-1.4,2.3-2c0.8-0.6,1.8-1,2.7-1.4c2-0.8,4-1.2,6-1.2c2.1,0,4.2,0.4,6,1.2c0.9,0.4,1.9,0.8,2.7,1.4
					c0.8,0.6,1.6,1.2,2.3,2s1.4,1.5,2,2.3c0.6,0.8,1,1.8,1.4,2.7c0.8,2,1.2,4,1.2,6c0,2.1-0.4,4.2-1.2,6c-0.4,0.9-0.8,1.9-1.4,2.7
					c-0.6,0.8-1.2,1.6-2,2.3c-0.7,0.7-1.5,1.4-2.3,2c-0.8,0.6-1.8,1-2.7,1.4C304.2,534.5,302.1,534.9,300,534.9 M300,535.9
					c9.2,0,16.6-7.4,16.6-16.6s-7.4-16.6-16.6-16.6s-16.6,7.4-16.6,16.6S290.8,535.9,300,535.9L300,535.9z"/>
				<path class="st13" d="M313.9,519.3c0-5.5-3.2-10.2-7.8-12.5l6.6,18.1C313.4,523.3,313.9,521.3,313.9,519.3z M290.6,520
					c0,1.7,0.7,2.9,1.1,3.8c0.7,1.1,1.4,2.1,1.4,3.3c0,1.3-0.9,2.4-2.3,2.4c-0.1,0-0.1,0-0.2,0c2.4,2.2,5.8,3.6,9.4,3.6
					c4.8,0,9.1-2.5,11.5-6.2c-0.3,0-0.7,0-0.9,0c-1.5,0-3.7,0.2-3.7,0.2c-0.7,0-0.8-1-0.1-1.1c0,0,0.7-0.1,1.6-0.1l-5-15l-3.1,9.1
					l2.1,6c0.7,0,1.5,0.1,1.5,0.1c0.7,0,0.7,1.2-0.1,1.1c0,0-2.3-0.2-3.6-0.2c-1.5,0-3.7,0.2-3.7,0.2c-0.7,0-0.8-1-0.1-1.1
					c0,0,0.7-0.1,1.6-0.1l-5-14.9l-1.4,4.6C291,517.4,290.6,518.8,290.6,520z M299.7,518.1l4.2-12.1c-1.2-0.4-2.5-0.6-3.9-0.6
					c-1.6,0-3.2,0.3-4.6,0.7c0,0.1,0.1,0.1,0.1,0.2L299.7,518.1z M287.8,526c-0.1-0.5-0.1-0.9-0.1-1.4c0-1.4,0.3-3,1-4.9l4.2-12.2
					c-4.1,2.4-6.9,6.9-6.9,12C286.1,521.7,286.8,524,287.8,526z"/>
			</g>
		</g>
		<g id="icon-sl">
			<circle class="st1" cx="80.7" cy="300" r="27.9"/>
			<g id="slack">
				<path class="st14" d="M85.2,310c2,0,3.6,1.6,3.6,3.6c0,2-1.6,3.6-3.6,3.6c-2,0-3.6-1.6-3.6-3.6V310H85.2z"/>
				<path class="st14" d="M85.2,308.1c-2,0-3.6-1.6-3.6-3.6s1.6-3.6,3.6-3.6h9c2,0,3.6,1.6,3.6,3.6c0,2-1.6,3.6-3.6,3.6H85.2z"/>
				<path class="st15" d="M70.8,304.6c0,2-1.6,3.6-3.6,3.6c-2,0-3.6-1.6-3.6-3.6c0-2,1.6-3.6,3.6-3.6h3.6V304.6z"/>
				<path class="st15" d="M72.5,304.6c0-2,1.6-3.6,3.6-3.6c2,0,3.6,1.6,3.6,3.6v9c0,2-1.6,3.6-3.6,3.6c-2,0-3.6-1.6-3.6-3.6V304.6z"
					/>
				<path class="st16" d="M76.1,290c-2,0-3.6-1.6-3.6-3.6s1.6-3.6,3.6-3.6c2,0,3.6,1.6,3.6,3.6v3.6H76.1z"/>
				<path class="st16" d="M76.1,291.9c2,0,3.6,1.6,3.6,3.6c0,2-1.6,3.6-3.6,3.6h-9c-2,0-3.6-1.6-3.6-3.6c0-2,1.6-3.6,3.6-3.6H76.1z"
					/>
				<g>
					<path class="st17" d="M90.7,295.4c0-2,1.6-3.6,3.6-3.6c2,0,3.6,1.6,3.6,3.6c0,2-1.6,3.6-3.6,3.6h-3.6V295.4z"/>
					<path class="st17" d="M88.8,295.4c0,2-1.6,3.6-3.6,3.6c-2,0-3.6-1.6-3.6-3.6v-9c0-2,1.6-3.6,3.6-3.6c2,0,3.6,1.6,3.6,3.6V295.4
						z"/>
				</g>
			</g>
		</g>
		<g id="icon-ga">
			<circle class="st1" cx="455.1" cy="144.9" r="27.9"/>
			<g id="ga" transform="matrix(3.5485559,0,0,3.5485559,-174.94921,-339.18037)">
				<path id="path3806" class="st18" d="M181.3,135.2l-4.9,4.9c-0.6,0.6-0.5,1.2-0.1,1.7c0.4,0.4,1,0.6,1.7-0.1l4.9-4.9
					c0.5-0.5,0.5-1.2,0-1.6C182.4,134.8,181.8,134.7,181.3,135.2z"/>
				<path id="path3808" class="st19" d="M176.8,135.6l-2.4,2.4c-0.6,0.6-0.5,1.2-0.1,1.7c0.4,0.4,1,0.6,1.7-0.1l2.4-2.4
					c0.5-0.5,0.5-1.2,0-1.6C177.9,135.2,177.2,135.2,176.8,135.6L176.8,135.6z"/>
				<path id="path3810" class="st19" d="M173.8,137.7c-0.5,0.5-1.1,0.5-1.6,0s-0.5-1.1,0-1.6s1.1-0.5,1.6,0S174.2,137.2,173.8,137.7
					"/>
			</g>
		</g>
	</g>
	<rect id="C" class="st7" width="600" height="600"/>
</g>
</svg>
